<svg width="134" height="38" xmlns="http://www.w3.org/2000/svg">
 <style type="text/css">.st0{fill:#14BF98;}
	.st1{fill:#FFFFFF;}</style>

 <title>logo</title>
 <g>
  <title>background</title>
  <rect x="-1" y="-1" width="136" height="40" id="canvas_background" fill="none"/>
 </g>
 <g>
  <title>Layer 1</title>
  <text font-weight="bold" fill="#ffffff" stroke-width="0" stroke-opacity="null" fill-opacity="null" x="43.57438" y="25.08482" id="svg_24" font-size="24" font-family="Helvetica, Arial, sans-serif" text-anchor="start" xml:space="preserve" transform="matrix(1.0597220122907274,0,0,1.3836780914696882,-12.486786672382433,-4.451846808257204) " stroke="null">LORIMA</text>
  <path stroke="#8CD79F" id="svg_1" d="m1.69415,26.60815c-0.00918,-8.36664 -0.01835,-16.73328 -0.02753,-25.09992c8.28629,0.09616 16.60772,-0.2278 24.86595,0.24693c4.02708,1.08434 3.44673,7.83452 3.38133,12.87638c-0.17666,3.80218 2.35289,11.33954 -4.21722,12.47248c-3.27555,0.00013 -3.28845,1.06152 -2.95411,2.98149c0.388,2.87637 -0.73839,9.3198 -6.11936,5.23572l-14.92906,-8.71306l0,0zm25.36004,-2.73505c0.01331,-7.52054 -0.09775,-13.93664 -0.64749,-18.8916c-4.88439,-1.68542 -11.48455,-0.8652 -17.01096,-0.89081c-2.17242,0.80156 5.15334,3.46311 6.70706,4.49584c5.89849,2.22053 7.65835,6.25877 6.63979,10.82258c0,1.7753 0,3.55061 0,5.32591c1.08774,-0.001 3.33809,-0.40984 4.31161,-0.86193l0,0z" stroke-width="0" fill="#7DD8B5"/>
  <path id="svg_2" d="m77.48787,56.0396c-0.00029,-0.35366 -0.00059,-0.70733 -0.00088,-1.06099c0.26564,0.00406 0.53241,-0.00963 0.79716,0.01044c0.1291,0.04584 0.1105,0.33117 0.1084,0.5443c-0.00566,0.16072 0.07543,0.47933 -0.1352,0.52722c-0.10501,0.00001 -0.10542,0.04487 -0.0947,0.12603c0.01244,0.12159 -0.02367,0.39396 -0.19618,0.22132l-0.4786,-0.36831l0,0zm0.813,-0.11561c0.00043,-0.3179 -0.00313,-0.58911 -0.02076,-0.79856c-0.15658,-0.07124 -0.36817,-0.03657 -0.54534,-0.03766c-0.06964,0.03388 0.16521,0.14639 0.21502,0.19004c0.1891,0.09386 0.24551,0.26456 0.21286,0.45748c0,0.07504 0,0.15009 0,0.22513c0.03487,-0.00004 0.10701,-0.01732 0.13822,-0.03643l0,0z" fill-opacity="null" stroke-opacity="null" stroke-width="0" stroke="null" fill="#ffffff"/>
  <path id="svg_3" d="m37.19146,22.37635c-0.00029,-0.35366 -0.00059,-0.70733 -0.00088,-1.06099c0.26564,0.00406 0.53241,-0.00963 0.79716,0.01044c0.1291,0.04584 0.1105,0.33117 0.1084,0.5443c-0.00566,0.16072 0.07543,0.47933 -0.1352,0.52722c-0.10501,0.00001 -0.10542,0.04487 -0.0947,0.12603c0.01244,0.12159 -0.02367,0.39396 -0.19618,0.22132l-0.4786,-0.36831l0,0zm0.813,-0.11561c0.00043,-0.3179 -0.00313,-0.58911 -0.02076,-0.79856c-0.15658,-0.07124 -0.36817,-0.03657 -0.54534,-0.03766c-0.06964,0.03388 0.16521,0.14639 0.21502,0.19004c0.1891,0.09386 0.24551,0.26456 0.21286,0.45748c0,0.07504 0,0.15009 0,0.22513c0.03487,-0.00004 0.10701,-0.01732 0.13822,-0.03643l0,0z" fill-opacity="null" stroke-opacity="null" stroke-width="0" stroke="null" fill="#ffffff"/>
 </g>
</svg>